<?xml version="1.0" encoding="UTF-8"?>
<svg id="Layer_1" xmlns="http://www.w3.org/2000/svg" version="1.1" xmlns:xlink="http://www.w3.org/1999/xlink" viewBox="0 0 174 58">
  <!-- Generator: Adobe Illustrator 29.0.0, SVG Export Plug-In . SVG Version: 2.1.0 Build 186)  -->
  <defs>
    <style>
      .st0 {
        fill: #fff;
      }
    </style>
  </defs>
  <path class="st0" d="M151.3,24.4h5.8v2.7c.8-.9,1.8-1.6,3.2-2.1,1.4-.5,2.9-.8,4.7-.8v4.6c-1.8,0-3.4.3-4.8.8-1.4.6-2.3,1.4-2.8,2.5v11.2h-6v-19Z"/>
  <path class="st0" d="M170.7,21.4c-.9,0-1.7-.3-2.3-.9-.6-.6-.9-1.4-.9-2.3s.3-1.7.9-2.3c.6-.6,1.4-1,2.3-1s1.7.3,2.3,1c.6.6.9,1.4.9,2.3s-.3,1.7-.9,2.3c-.6.6-1.4.9-2.3.9ZM167.7,24.4h6v19h-6v-19Z"/>
  <image width="137" height="77" transform="translate(36.7 .7) scale(.7)" xlink:href="logo.jpg"/>
</svg>